<svg width="18" height="18" viewBox="0 0 18 18" fill="none" xmlns="http://www.w3.org/2000/svg">
<path d="M13.3751 0.749817H5.12512C2.84695 0.749817 1.00012 2.59664 1.00012 4.87482V13.1248C1.00012 15.403 2.84695 17.2498 5.12512 17.2498H13.3751C15.6533 17.2498 17.5001 15.403 17.5001 13.1248V4.87482C17.5001 2.59664 15.6533 0.749817 13.3751 0.749817Z" stroke="white" stroke-linecap="round" stroke-linejoin="round"/>
<path d="M12.5489 8.48056C12.6507 9.16716 12.5335 9.86839 12.2138 10.4845C11.8941 11.1006 11.3883 11.6002 10.7683 11.9123C10.1483 12.2244 9.44565 12.333 8.76035 12.2227C8.07506 12.1124 7.44198 11.7889 6.95117 11.2981C6.46036 10.8073 6.13681 10.1742 6.02653 9.48889C5.91626 8.80359 6.02488 8.10097 6.33695 7.48097C6.64901 6.86096 7.14863 6.35515 7.76474 6.03546C8.38085 5.71577 9.08208 5.5985 9.76868 5.70031C10.469 5.80416 11.1174 6.13052 11.6181 6.63116C12.1187 7.13181 12.4451 7.7802 12.5489 8.48056Z" stroke="white" stroke-linecap="round" stroke-linejoin="round"/>
<path d="M13.7869 4.46265H13.7956" stroke="white" stroke-linecap="round" stroke-linejoin="round"/>
</svg>
