<svg width="10" height="14" viewBox="0 0 10 14" fill="none" xmlns="http://www.w3.org/2000/svg">
<path d="M9 5.90909C9 9.44975 5.56034 12.5214 5.06032 12.9492C5.02416 12.9801 4.97584 12.9801 4.93968 12.9492C4.43966 12.5214 1 9.44975 1 5.90909C1 4.60712 1.42143 3.35847 2.17157 2.43784C2.92172 1.51721 3.93913 1 5 1C6.06087 1 7.07828 1.51721 7.82843 2.43784C8.57857 3.35847 9 4.60712 9 5.90909Z" stroke="#4C4949" stroke-linecap="round" stroke-linejoin="round"/>
<path d="M4.99984 7.54543C5.73622 7.54543 6.33317 6.81281 6.33317 5.90907C6.33317 5.00533 5.73622 4.27271 4.99984 4.27271C4.26346 4.27271 3.6665 5.00533 3.6665 5.90907C3.6665 6.81281 4.26346 7.54543 4.99984 7.54543Z" stroke="#4C4949" stroke-linecap="round" stroke-linejoin="round"/>
</svg>
