<svg width="20" height="17" viewBox="0 0 20 17" fill="none" xmlns="http://www.w3.org/2000/svg">
<path d="M19 1.4082C18.2099 1.96547 17.3352 2.39169 16.4095 2.67045C15.9126 2.09914 15.2523 1.69422 14.5178 1.51044C13.7833 1.32666 13.0101 1.37288 12.3027 1.64287C11.5953 1.91286 10.9879 2.39358 10.5627 3.02001C10.1374 3.64645 9.91483 4.38838 9.92498 5.14545V5.97045C8.47515 6.00804 7.03853 5.68649 5.74306 5.03444C4.44759 4.38239 3.33349 3.42007 2.49998 2.2332C2.49998 2.2332 -0.800025 9.6582 6.62498 12.9582C4.92591 14.1115 2.90188 14.6898 0.849976 14.6082C8.27498 18.7332 17.35 14.6082 17.35 5.1207C17.3492 4.8909 17.3271 4.66166 17.284 4.43595C18.126 3.60558 18.7202 2.55719 19 1.4082V1.4082Z" stroke="white" stroke-linecap="round" stroke-linejoin="round"/>
</svg>
